# xmcd
#
# Track frame offsets: 
#        150
#        645
#        12942
#        23048
#        34189
#        48214
#        59154
#        74524
#        85094
#        97215
#        109739
#        122161
#        134197
#        145696
#        161959
#        171001
#        182573
#        195426
#
# Disc length: 2759 seconds
#
# Revision: 0
# Processed by: cddbd v1.5.2PL0 Copyright (c) Steve Scherf et al.
# Submitted via: ExactAudioCopyFreeDBPlugin 1.0
#
DISCID=fe0ac512
DTITLE=Buck Owens  -  Live In San Francisco 1989  CD 1
DYEAR=2015
DGENRE=Bakersfield Sound 
TTITLE0=Introduction
TTITLE1=Act Naturally
TTITLE2=Together Again
TTITLE3=My Heart Skips A Beat
TTITLE4=Under Your Spell Again
TTITLE5=Truck Drivin' Man
TTITLE6=Cryin' Time Again
TTITLE7=Hot Dog
TTITLE8=Don't Let Her Know
TTITLE9=Key's In The Mailbox
TTITLE10=Memphis
TTITLE11=Close Up The Honky Tonks
TTITLE12=Foolin' Around 
TTITLE13=Somebody Put A Quarter In The Jukebox 
TTITLE14=Love's Gonna Live Here 
TTITLE15=Please Don't Play A-11 
TTITLE16=Tall Dark Stranger 
TTITLE17=Excuse Me (I Think I've Got A Heartache) 
EXTD=
EXTT0=
EXTT1=
EXTT2=
EXTT3=
EXTT4=
EXTT5=
EXTT6=
EXTT7=
EXTT8=
EXTT9=
EXTT10=
EXTT11=
EXTT12=
EXTT13=
EXTT14=
EXTT15=
EXTT16=
EXTT17=
PLAYORDER=
